<svg xmlns="http://www.w3.org/2000/svg" xml:space="preserve"
  style="shape-rendering:geometricPrecision;text-rendering:geometricPrecision;image-rendering:optimizeQuality;fill-rule:evenodd;clip-rule:evenodd"
  viewBox="5163.86 6419.29 10169.33 7664.34">
  <defs>
    <style>
      .str0,
      .str1 {
        stroke: #2b2a29;
        stroke-width: 169.33;
        stroke-miterlimit: 22.9256
      }

      .str1 {
        stroke-width: 7.62
      }

      .fil2 {
        fill: none
      }
    </style>
  </defs>
  <g id="Warstwa_x0020_1">
    <g id="_2162695588400">
      <path d="M5248.53 9003.95h5000v2500h-5000z" class="str0" style="fill:#2b2a29"></path>
      <path
        d="M6475.62 10375.35c135.25-47.09 229.43-178.41 229.43-339.55 0-204.05-150.95-370.43-361.01-370.43h-523.99v1177.2h299.8v-431.9h68.8l275.2 431.9h337.46l-325.69-467.22zm-180.76-205.88h-175.01v-243.55h175.01c70.63 0 121.9 51.02 121.9 121.65 0 70.89-51.27 121.9-121.9 121.9zm1429.38-243.55v-260.55H6994.9v1177.2h729.34v-260.55h-429.55v-199.34h362.84v-258.99h-362.84v-197.77h429.55zm1008.47 0v-260.55h-729.34v1177.2h729.34v-260.55h-429.55v-199.34H8666v-258.99h-362.84v-197.77h429.55zm569.51 656.1v-916.65h-299.8v1177.2h674.41v-260.55h-374.61z"
        class="str1" style="fill:#fefefe;fill-rule:nonzero"></path>
      <path d="M9248.53 11498.96h5000v2500h-5000z" class="fil2 str0"></path>
      <path
        d="M10500.45 12190.12h-645.88v247.32h361.31v540.6c0 53.89-42.71 98.59-94.86 98.59-46.68 0-83.93-35.27-91.38-83.69l-281.11 85.67c26.07 150.73 152.72 243.86 372.49 243.86 249.32 0 379.43-119.2 379.43-307.18v-825.17zm724.86 1132.1c316.61 0 573.87-257.26 573.87-573.38s-257.26-573.38-573.87-573.38c-318.35 0-573.13 257.26-573.13 573.38s254.78 573.38 573.13 573.38zm0-279.61c-169.35 0-296.01-124.66-296.01-293.77 0-169.1 126.66-293.76 296.01-293.76 167.61 0 294.27 124.66 294.27 293.76 0 169.11-126.66 293.77-294.27 293.77zm1450.21-303.95c77.98-42.71 126.4-117.21 126.4-234.41 0-202.64-152.48-314.13-343.93-314.13h-494.91v1117.45h537.62c189.72 0 338.46-104.05 338.46-308.91 0-134.85-65.06-217.04-163.64-260zm-158.19-202.88c0 50.16-42.7 98.58-94.85 98.58h-174.82v-196.92h174.82c52.15 0 94.85 46.44 94.85 98.34zm-59.34 524.45h-210.33v-198.4h210.33c55.62 0 96.6 48.67 96.6 99.33 0 52.39-40.98 99.07-96.6 99.07zm892.97 261.99c213.56 0 397.57-124.66 397.57-338.71 0-424.39-505.34-318.36-505.34-487.47 0-48.41 37.25-70.77 81.7-70.77 55.62 0 116.96 33.53 176.31 96.85l185.99-180.78c-87.41-102.56-219.51-165.88-358.58-165.88-176.8 0-372.48 102.56-372.48 340.95 0 386.89 507.82 294.01 507.82 463.37 0 44.45-37 76.24-109.51 76.24-96.35 0-174.57-52.15-213.81-135.83l-232.93 145.02c74.5 141.54 238.64 257.01 443.26 257.01z"
        class="str1" style="fill:#2b2a29;fill-rule:nonzero"></path>
      <path d="M10248.53 6503.95h5000v5000h-5000z" class="str0" style="fill:#0e76a8"></path>
      <path
        d="m13867.25 8769.66-1707.76-980.12c-177.06-101.6-397.63 26.48-396.68 230.67l4.83 1969c.26 203.93 221.57 330.97 398.04 228.48l1702.55-988.93c176.47-102.5 176.07-357.45-.98-459.1z"
        style="fill:#fefefe;fill-rule:nonzero"></path>
      <path d="M7748.53 6503.95h2500v2500h-2500z" class="fil2 str0"></path>
      <path
        d="M9877.73 7753.91c0 485.6-393.42 879.27-879.2 879.27-485.79 0-879.2-393.67-879.2-879.27 0-485.62 393.41-879.2 879.2-879.2 485.78 0 879.2 393.58 879.2 879.2z"
        style="fill:#e63536;fill-rule:nonzero"></path>
    </g>
  </g>
</svg>